<?xml version="1.0" encoding="UTF-8"?>
<svg width="681px" height="517px" viewBox="0 0 681 517" version="1.1" xmlns="http://www.w3.org/2000/svg" xmlns:xlink="http://www.w3.org/1999/xlink">
    <!-- Generator: Sketch 55.2 (78181) - https://sketchapp.com -->
    <title>Path 6 Copy 3</title>
    <desc>Created with Sketch.</desc>
    <g id="Desktop" stroke="none" stroke-width="1" fill="none" fill-rule="evenodd">
        <g id="Path-6-Copy-3" transform="translate(321.584432, 271.365716) rotate(-296.000000) translate(-321.584432, -271.365716) translate(59.584432, -42.134284)" fill="#991633">
            <path d="M298.315489,20.2149063 C350.837923,27.7689912 381.532311,-5.79648923 428.308349,1.14227407 C536.503107,17.1918978 539.88415,148.77054 499.185518,245.886338 C486.084777,277.147558 461.846739,302.054661 455.297999,337.490908 C451.665423,357.147344 448.018064,376.869929 445.940578,396.898218 C442.993153,425.313275 443.469346,454.222923 440.247389,482.588408 C431.512947,559.484759 397.335419,576.049404 345.688979,604.487094 C314.916444,621.431144 279.579519,624.545432 246.535137,626.260991 C183.293066,629.544318 128.831349,616.850172 75.2246718,570.874678 C62.5689565,560.020568 44.2612856,538.804775 38.8700293,519.743596 C25.1854235,471.360676 4.76467654,424.125337 1.97029426,372.752714 C-1.74322712,304.482407 -1.03990965,252.36989 23.6365572,190.926785 C40.7230093,148.382418 57.4605245,114.065426 64.9436213,106.234753 C110.710494,58.3420896 92.6535431,47.0056475 175.481481,17.002061 C258.309419,-13.0015255 245.793056,12.6608214 298.315489,20.2149063 Z" id="Path-6"></path>
        </g>
    </g>
</svg>